<svg width="218" height="221" viewBox="0 0 218 221" fill="none" xmlns="http://www.w3.org/2000/svg">
<path d="M176.237 137.264H160.77C161.041 134.289 160.051 131.319 158.045 129.103C156.019 126.864 153.124 125.579 150.104 125.579H137.605C136.509 123.279 134.161 121.685 131.447 121.685H111.973C108.215 121.685 105.158 124.742 105.158 128.5V147.797C105.158 153.438 109.31 158.097 114.818 158.633C115.497 158.699 116.175 158.702 116.842 158.64V159.471C116.842 165.372 121.376 170.156 127.165 170.361C130.106 170.46 132.88 169.402 134.99 167.365C137.101 165.328 138.263 162.591 138.263 159.658V131.421H150.103C151.497 131.421 152.779 131.99 153.713 133.023C154.648 134.056 155.086 135.388 154.948 136.774L154.639 139.86C154.637 139.88 154.635 139.899 154.633 139.919L150.82 178.046C149.371 192.542 137.291 203.473 122.723 203.473H62.2767C47.7083 203.473 35.6295 192.542 34.1802 178.046L30.0527 136.774C29.914 135.388 30.3526 134.056 31.2874 133.023C32.2222 131.99 33.5042 131.422 34.8971 131.422H96.3951C98.0088 131.422 99.3161 130.114 99.3161 128.501C99.3161 126.887 98.0088 125.58 96.3951 125.58H34.8971C31.8767 125.58 28.9821 126.864 26.9558 129.104C24.9501 131.32 23.9597 134.29 24.231 137.264H8.76329C3.93125 137.264 0 141.195 0 146.027V149.921C0 154.753 3.93125 158.685 8.76329 158.685H18.5C20.1137 158.685 21.421 157.377 21.421 155.764C21.421 154.15 20.1133 152.843 18.5 152.843H8.76329C7.15249 152.843 5.84231 151.532 5.84231 149.922V146.027C5.84231 144.416 7.15249 143.106 8.76329 143.106H24.8146L28.3664 178.628C30.116 196.123 44.6941 209.316 62.2763 209.316H122.723C140.305 209.316 154.884 196.123 156.633 178.628L160.185 143.106H176.236C177.847 143.106 179.157 144.416 179.157 146.027V149.922C179.157 151.532 177.847 152.843 176.236 152.843H166.5C164.886 152.843 163.579 154.15 163.579 155.764C163.579 157.377 164.887 158.685 166.5 158.685H176.237C181.068 158.685 185 154.753 185 149.921V146.027C185 141.195 181.069 137.264 176.237 137.264ZM132.421 159.659C132.421 160.992 131.892 162.236 130.933 163.163C129.974 164.088 128.711 164.568 127.372 164.524C124.787 164.432 122.684 162.165 122.684 159.472V154.713C122.684 153.669 122.126 152.704 121.222 152.182C120.77 151.922 120.267 151.792 119.763 151.792C119.257 151.792 118.752 151.923 118.299 152.186C117.412 152.7 116.404 152.918 115.383 152.819C112.925 152.58 111 150.374 111 147.797V128.5C111 127.963 111.436 127.527 111.973 127.527H131.447C131.984 127.527 132.421 127.963 132.421 128.5V159.659Z" fill="#250712"/>
<path d="M165.921 48.1052C167.535 48.1052 168.842 46.7976 168.842 45.1843V17.921C168.842 16.3073 167.535 15 165.921 15C164.307 15 163 16.3076 163 17.921V45.1843C163 46.798 164.308 48.1052 165.921 48.1052Z" fill="#250712"/>
<path d="M162.605 215.158H18.5001C16.8864 215.158 15.5791 216.466 15.5791 218.079C15.5791 219.693 16.8867 221 18.5001 221H162.605C164.219 221 165.526 219.693 165.526 218.079C165.526 216.465 164.219 215.158 162.605 215.158Z" fill="#250712"/>
<path d="M22.5266 118.888C22.8675 118.749 23.2053 118.594 23.5384 118.422L130.903 63.1935C137.109 60 139.561 52.3537 136.368 46.1469C133.175 39.9405 125.528 37.4875 119.322 40.6812L85.5538 58.052L83.3269 53.7226C80.6253 48.4711 74.1461 46.403 68.9033 49.098L48.1232 59.7873C42.8714 62.489 40.797 68.9594 43.4983 74.211L45.7254 78.54L11.9576 95.9106C8.95102 97.4575 6.72676 100.082 5.69432 103.302C4.66187 106.521 4.94516 109.95 6.49177 112.957C9.51424 118.83 16.5233 121.341 22.5266 118.888ZM11.2574 105.085C11.8133 103.352 13.0113 101.938 14.6298 101.105L50.9767 82.4083C50.9833 82.4052 50.9894 82.4019 50.9956 82.399C51.0023 82.3955 51.0084 82.3922 51.0146 82.3893L58.0338 78.7781C59.4685 78.0402 60.0328 76.2792 59.2952 74.8444C58.5574 73.4101 56.7938 72.8507 55.3615 73.583L50.9206 75.8676L48.6937 71.5385C48.0987 70.3819 47.9897 69.0634 48.3865 67.8248C48.7835 66.5866 49.6393 65.5773 50.7955 64.9824L71.5756 54.2931C73.9643 53.0663 76.9032 54.0077 78.1318 56.3949L80.3591 60.7242L65.7915 68.2182C64.3568 68.9561 63.7925 70.7171 64.5301 72.1519C65.268 73.5865 67.0303 74.1511 68.4638 73.4133L121.995 45.8762C125.343 44.1581 129.454 45.4774 131.173 48.8191C132.893 52.1608 131.572 56.2787 128.231 57.9979L20.8657 113.227C19.2487 114.059 17.401 114.212 15.6674 113.657C13.9337 113.101 12.52 111.903 11.6874 110.284C10.8546 108.665 10.7014 106.819 11.2574 105.085Z" fill="#250712"/>
<path d="M152.921 48.1052C154.535 48.1052 155.842 46.7976 155.842 45.1843V17.921C155.842 16.3073 154.535 15 152.921 15C151.307 15 150 16.3076 150 17.921V45.1843C150 46.798 151.308 48.1052 152.921 48.1052Z" fill="#250712"/>
<path d="M208.669 51.7296C211.016 49.3833 211.015 45.5801 208.669 43.2343C206.323 40.888 202.52 40.8882 200.174 43.2343L164.689 78.719L173.184 87.2141L208.669 51.7296Z" fill="#FF7676"/>
<path d="M113.747 108.354C121.977 116.584 135.319 116.584 143.549 108.354L113.747 78.5518C105.517 86.7815 105.517 100.124 113.747 108.354Z" fill="#E3CBCB"/>
<path d="M209.783 42.1195C208.351 40.6872 206.447 39.8984 204.422 39.8984C202.396 39.8984 200.493 40.6872 199.06 42.1195L162.463 78.7178L173.184 89.4398L183.729 78.8957L181.502 76.6688L173.184 84.9861L166.916 78.7178L201.288 44.3467C202.125 43.5095 203.238 43.0482 204.422 43.0482C205.606 43.0482 206.718 43.5093 207.556 44.3467C209.284 46.075 209.284 48.8869 207.556 50.615L184.471 73.6996L186.698 75.9264L209.783 52.842C212.739 49.886 212.739 45.0761 209.783 42.1195Z" fill="#250712"/>
<path d="M158.008 83.1722L162.256 87.4199L143.549 106.126L113.747 76.3242L112.633 77.4376C108.356 81.7153 106 87.4029 106 93.4523C106 99.5018 108.356 105.19 112.633 109.467C116.911 113.744 122.598 116.1 128.648 116.101C128.648 116.101 128.649 116.101 128.65 116.101C134.698 116.101 140.385 113.745 144.663 109.467L145.776 108.354L164.483 89.6473L168.73 93.895L170.957 91.6681L160.235 80.9458L158.008 83.1722ZM128.65 112.951C128.65 112.951 128.649 112.951 128.648 112.951C123.439 112.951 118.543 110.922 114.861 107.24C111.178 103.558 109.15 98.6606 109.15 93.4523C109.15 88.7722 110.787 84.3444 113.791 80.8222L141.278 108.31C137.756 111.314 133.329 112.951 128.65 112.951Z" fill="#250712"/>
<path d="M128.65 109.802C124.281 109.802 120.175 108.101 117.088 105.013L119.315 102.787C121.807 105.279 125.122 106.652 128.649 106.653C130.189 106.653 131.692 106.393 133.119 105.881L134.183 108.845C132.414 109.48 130.552 109.802 128.65 109.802Z" fill="white"/>
</svg>